<?xml version="1.0" encoding="UTF-8"?><svg id="Ebene_3" xmlns="http://www.w3.org/2000/svg" viewBox="0 0 245.11 245.11"><path d="M116.28,133.94c9.15-14.72,31.02-53.59,39.13-69.3,10.85-21.03,10.25-19.84,27.68-47.88,.56-.9,1.25-1.81,1.25-1.81-2.97-1.61-8.86-2.27-11.12,.69-2.8,3.68-13.11,22.41-15.29,26.51l-14.1,26.55c-9.4,17.7-21.05,37.21-31.19,54.5-7.97,13.59-4.95,8.64-5.07-3.78-.1-10.03-.05-26.64-.05-36.67,0-29.44,.29-23.57,.89-36.59,.08-1.66,1.34-31.78,1.53-31.78-26.58-.85-49.99-.45-67.16-.17-5.13,.08-15.15,.2-15.15,.2,0,2.36-.12,5.08,1.12,6.87,0,0,14.42-.46,16.12-.33,0,0,44.36-1.34,54.54,1.85-.56,8.53-.74,20.34-.93,24.44-.39,8.58-.48,17.18-.42,25.77,.25,34.39,3.05,68.86-.24,103.18-1.02,10.65-2.81,35-12.7,40.8-7.58,4.45-18.77,2.91-24.92-2.13-6.81-5.57-11.35-13.29-15.13-21.23-3.07-6.44-4.25-9.9-7.15-19.69-.98-3.33-7.63-2.14-7.63-2.14,.09,8.59,4.05,18.71,8.02,26.77,4.41,8.96,8.34,14.61,15.56,21.51,10.36,9.92,30.39,9.11,38.26,3.42,4.81-3.48,10.58-8.06,14.22-46.39,.73-7.69,.17-20.43,4.93-35.18,.59-1.82,3.98-6.39,4.99-8.02Z"/><path d="M183.88,226.84c-6.32,2.25-17.32,3.34-25.3-1.37-5.5-3.25-10.28-10.53-13.69-22.89-3.84-13.96-2.24-30.65-2.29-47.21-.03-8.58,0-41.92,.43-49.67,.2-3.6,.68-14.35,.68-14.35,2.24-.31,6.2,2.39,6.76,4.55,1.01,3.92,.73,10.69,.78,14.85,.13,9.93,.28,21,.59,30.92,.43,13.84,.1,32.26,1.17,45.81,.73,9.17,1.44,15.77,5.87,23.83,4.64,8.45,23.27,13.87,30.31,1.66,3.66-6.36,5.23-13.72,6.49-20.88,2.88-16.42,3.28-35.49,3.92-52.15,1.45-37.59,3.14-50.85,5.43-88.26,.32-5.24,2.09-29.22,2.57-30.26,3.64-7.82,9.12-7.82,9.12-7.82-.56,23.65-2.18,38.05-3.69,52.96-.69,6.83-2.27,30.11-2.41,36.38-.18,8.15-2.06,37.22-2.49,45.36-.95,17.88-1.91,35.86-5.78,53.35-1.23,5.57-6.04,20.8-18.46,25.21Z"/></svg>